<svg width="65" height="62" viewBox="0 0 65 62" fill="none" xmlns="http://www.w3.org/2000/svg">
<g clip-path="url(#clip0_17_17)" filter="url(#filter0_d_17_17)">
<path d="M21.4325 20.0081C21.6178 20.1933 21.861 20.2864 22.1042 20.2864C22.3474 20.2864 22.5906 20.1933 22.7758 20.0081C23.1473 19.6367 23.1473 19.0363 22.7758 18.6648C21.8116 17.6996 21.8116 16.1302 22.7758 15.165C23.6023 14.3385 24.0583 13.2403 24.0583 12.0718C24.0583 10.9033 23.6033 9.8051 22.7758 8.9786C22.4044 8.60715 21.804 8.60715 21.4325 8.9786C21.0611 9.35005 21.0611 9.95045 21.4325 10.3219C21.8999 10.7893 22.1583 11.4106 22.1583 12.0718C22.1583 12.733 21.9009 13.3543 21.4325 13.8217C19.7273 15.527 19.7273 18.3029 21.4325 20.0081Z" fill="black"/>
<path d="M42.3325 20.0081C42.5178 20.1933 42.761 20.2864 43.0042 20.2864C43.2474 20.2864 43.4906 20.1933 43.6758 20.0081C44.0473 19.6367 44.0473 19.0363 43.6758 18.6648C42.7116 17.6996 42.7116 16.1302 43.6758 15.165C44.5023 14.3385 44.9583 13.2403 44.9583 12.0718C44.9583 10.9033 44.5033 9.8051 43.6758 8.9786C43.3044 8.60715 42.704 8.60715 42.3325 8.9786C41.9611 9.35005 41.9611 9.95045 42.3325 10.3219C42.7999 10.7893 43.0583 11.4106 43.0583 12.0718C43.0583 12.733 42.8009 13.3543 42.3325 13.8217C40.6273 15.527 40.6273 18.3029 42.3325 20.0081Z" fill="black"/>
<path d="M31.8825 14.3081C32.0677 14.4933 32.3109 14.5864 32.5541 14.5864C32.7973 14.5864 33.0405 14.4933 33.2258 14.3081C33.5972 13.9366 33.5972 13.3362 33.2258 12.9648C32.2615 11.9996 32.2615 10.4302 33.2258 9.46499C34.0523 8.63849 34.5083 7.54029 34.5083 6.37179C34.5083 5.20329 34.0532 4.10509 33.2258 3.27859C32.8543 2.90714 32.2539 2.90714 31.8825 3.27859C31.511 3.65004 31.511 4.25044 31.8825 4.62189C32.3499 5.08929 32.6083 5.71059 32.6083 6.37179C32.6083 7.03299 32.3508 7.65429 31.8825 8.12169C30.1772 9.82694 30.1772 12.6028 31.8825 14.3081Z" fill="black"/>
<path d="M56.8428 41.7783C55.1214 31.6693 47.2411 23.6371 37.2091 21.6915C37.2253 21.5395 37.25 21.3865 37.25 21.2355C37.25 18.6163 35.1192 16.4855 32.5 16.4855C29.8808 16.4855 27.75 18.6163 27.75 21.2355C27.75 21.3865 27.7737 21.5395 27.7908 21.6915C17.7588 23.6371 9.8786 31.6693 8.1572 41.7783C6.1717 42.9021 4 44.5561 4 46.4114C4 51.2422 18.7364 54.4864 32.5 54.4864C46.2636 54.4864 61 51.2422 61 46.4114C61 44.5561 58.8283 42.9021 56.8428 41.7783ZM29.6557 21.3998C29.6519 21.3447 29.65 21.2896 29.65 21.2364C29.65 19.6651 30.9287 18.3864 32.5 18.3864C34.0713 18.3864 35.35 19.6651 35.35 21.2364C35.35 21.2906 35.3481 21.3447 35.3443 21.3998C35.2996 21.3951 35.255 21.3932 35.2113 21.3884C34.8845 21.3523 34.5558 21.3267 34.2252 21.3039C34.1036 21.2953 33.983 21.283 33.8614 21.2763C33.4111 21.2516 32.9579 21.2374 32.5009 21.2374C32.044 21.2374 31.5909 21.2516 31.1406 21.2763C31.0189 21.283 30.8983 21.2953 30.7767 21.3039C30.4461 21.3267 30.1174 21.3533 29.7906 21.3884C29.745 21.3932 29.7003 21.3941 29.6557 21.3998ZM27.8697 25.5466C29.3726 25.2084 30.9258 25.0364 32.4867 25.0364C32.4905 25.0364 32.4952 25.0364 32.5 25.0364C33.0244 25.0364 33.45 25.462 33.45 25.9874C33.45 26.5118 33.0244 26.9364 32.5 26.9364C32.4962 26.9364 32.4914 26.9364 32.4876 26.9364C31.0664 26.9364 29.6547 27.0922 28.2877 27.4C28.2174 27.4162 28.1471 27.4228 28.0777 27.4228C27.6436 27.4228 27.2513 27.1236 27.1515 26.6818C27.0366 26.1698 27.3576 25.6615 27.8697 25.5466ZM22.1925 27.7905C22.6447 27.5235 23.2261 27.6727 23.494 28.1239C23.7619 28.5761 23.6128 29.1585 23.1606 29.4254C18.6832 32.0778 15.4209 36.8934 14.4338 42.3074C14.3502 42.7653 13.9503 43.0864 13.5 43.0864C13.443 43.0864 13.386 43.0817 13.329 43.0703C12.8131 42.9762 12.4702 42.4822 12.5642 41.9654C13.6501 36.0184 17.2496 30.7193 22.1925 27.7905ZM32.5 52.5864C16.2588 52.5864 5.9 48.5309 5.9 46.4114C5.9 46.0476 6.3503 45.2458 7.8608 44.1998C7.857 44.254 7.8589 44.3072 7.8551 44.3613C7.8228 44.8819 7.8 45.4063 7.8 45.9364V46.685L8.52865 46.8608C16.3699 48.7427 24.4354 49.6965 32.5 49.6965C40.5645 49.6965 48.6301 48.7427 56.4714 46.8608L57.2 46.685V45.9364C57.2 45.4063 57.1772 44.8829 57.1449 44.3613C57.1411 44.3072 57.143 44.254 57.1392 44.1998C58.6497 45.2458 59.1 46.0476 59.1 46.4114C59.1 48.5309 48.7412 52.5864 32.5 52.5864Z" fill="black"/>
</g>
<defs>
<filter id="filter0_d_17_17" x="0" y="0" width="65" height="62" filterUnits="userSpaceOnUse" color-interpolation-filters="sRGB">
<feFlood flood-opacity="0" result="BackgroundImageFix"/>
<feColorMatrix in="SourceAlpha" type="matrix" values="0 0 0 0 0 0 0 0 0 0 0 0 0 0 0 0 0 0 127 0" result="hardAlpha"/>
<feOffset dy="4"/>
<feGaussianBlur stdDeviation="2"/>
<feComposite in2="hardAlpha" operator="out"/>
<feColorMatrix type="matrix" values="0 0 0 0 0 0 0 0 0 0 0 0 0 0 0 0 0 0 0.25 0"/>
<feBlend mode="normal" in2="BackgroundImageFix" result="effect1_dropShadow_17_17"/>
<feBlend mode="normal" in="SourceGraphic" in2="effect1_dropShadow_17_17" result="shape"/>
</filter>
<clipPath id="clip0_17_17">
<rect width="57" height="54" fill="white" transform="translate(4)"/>
</clipPath>
</defs>
</svg>
