<svg width="20" height="61" viewBox="0 0 20 61" fill="none" xmlns="http://www.w3.org/2000/svg">
<path d="M19.6952 10.3913C19.6952 7.75667 18.6989 5.22993 16.9253 3.36697C15.1518 1.504 12.7462 0.457397 10.238 0.457397C7.72977 0.457397 5.3243 1.504 3.55072 3.36697C1.77714 5.22993 0.780762 7.75667 0.780762 10.3913V40.4304L8.56907 46.2922V60.5722H11.9069V46.2922L19.6952 40.4304V10.3913ZM16.3574 27.1913L11.9069 31.8661V27.4835L16.3574 22.8087V27.1913ZM4.18815 22.8087L8.63861 27.4835V31.8661L4.18815 27.1913V22.8087ZM16.3574 17.8417L10.238 24.2696L4.11861 17.6957V13.3131L10.238 19.7409L16.3574 13.3131V17.8417ZM10.238 3.96348C11.5838 3.96973 12.8906 4.43923 13.9581 5.30005C15.0257 6.16087 15.7952 7.36554 16.1488 8.72957L10.238 14.92L4.32722 8.72957C4.66786 7.35197 5.43179 6.13096 6.50053 5.25601C7.56926 4.38104 8.88302 3.90101 10.238 3.89042V3.96348ZM4.11861 38.6591V32.0852L8.56907 36.76V41.9826L4.11861 38.6591ZM11.9069 42.0009V36.76L16.3574 32.0852V38.6409L11.9069 42.0009Z" fill="#19882B"/>
</svg>
