<svg width="185" height="87" viewBox="0 0 185 87" fill="none" xmlns="http://www.w3.org/2000/svg">
<path d="M24.6677 23.3765C24.6677 20.7419 23.6317 18.2152 21.7875 16.3522C19.9433 14.4892 17.4419 13.4426 14.8338 13.4426C12.2257 13.4426 9.72448 14.4892 7.88027 16.3522C6.03606 18.2152 5 20.7419 5 23.3765V53.4157L13.0985 59.2774V73.5574H16.5692V59.2774L24.6677 53.4157V23.3765ZM21.1969 40.1765L16.5692 44.8513V40.4687L21.1969 35.7939V40.1765ZM8.54308 35.7939L13.1708 40.4687V44.8513L8.54308 40.1765V35.7939ZM21.1969 30.827L14.8338 37.2548L8.47077 30.6809V26.2983L14.8338 32.7261L21.1969 26.2983V30.827ZM14.8338 16.9487C16.2333 16.955 17.5921 17.4245 18.7021 18.2853C19.8122 19.1461 20.6123 20.3508 20.98 21.7148L14.8338 27.9052L8.68769 21.7148C9.04189 20.3372 9.83625 19.1162 10.9475 18.2412C12.0588 17.3663 13.4249 16.8862 14.8338 16.8757V16.9487ZM8.47077 51.6444V45.0705L13.0985 49.7452V54.9678L8.47077 51.6444ZM16.5692 54.9861V49.7452L21.1969 45.0705V51.6261L16.5692 54.9861Z" fill="#19882B"/>
<path d="M36.1477 55L32.9797 37.464H35.8917L37.1397 45.08C37.2463 45.6987 37.353 46.4987 37.4597 47.48C37.5663 48.4613 37.6943 49.624 37.8437 50.968H37.9397C38.1317 50.0507 38.313 49.2293 38.4837 48.504C38.6757 47.7787 38.8463 47.128 38.9957 46.552C39.1663 45.9547 39.3157 45.432 39.4437 44.984L41.5877 37.464H43.9237L46.0997 44.984C46.2277 45.432 46.3663 45.9547 46.5157 46.552C46.6863 47.128 46.857 47.7787 47.0277 48.504C47.2197 49.2293 47.4117 50.0507 47.6037 50.968H47.7317C47.8597 49.624 47.977 48.4613 48.0837 47.48C48.1903 46.4987 48.297 45.6987 48.4037 45.08L49.6837 37.464H52.5957L49.4277 55H46.6437L43.6997 45.464C43.5503 44.9307 43.401 44.376 43.2517 43.8C43.1237 43.224 42.9957 42.4667 42.8677 41.528H42.7397C42.6543 42.1467 42.5583 42.6907 42.4517 43.16C42.345 43.6293 42.2383 44.0453 42.1317 44.408C42.025 44.7707 41.9183 45.1227 41.8117 45.464L38.9317 55H36.1477ZM61.4377 55.32C60.179 55.32 59.0057 55.2027 57.9177 54.968C56.851 54.712 55.9443 54.4133 55.1977 54.072L56.0297 51.768C56.4777 51.9387 56.9897 52.12 57.5657 52.312C58.1417 52.504 58.7603 52.664 59.4217 52.792C60.1043 52.8987 60.7977 52.952 61.5017 52.952C62.6323 52.952 63.571 52.7387 64.3177 52.312C65.0643 51.8853 65.4377 51.2667 65.4377 50.456C65.4377 49.9653 65.299 49.5493 65.0217 49.208C64.7657 48.8453 64.3603 48.5147 63.8057 48.216C63.251 47.9173 62.5363 47.6293 61.6617 47.352C60.3177 46.9253 59.1763 46.4773 58.2377 46.008C57.3203 45.5173 56.6163 44.9413 56.1257 44.28C55.6563 43.5973 55.4217 42.7547 55.4217 41.752C55.4217 40.856 55.6563 40.0667 56.1257 39.384C56.6163 38.68 57.363 38.136 58.3657 37.752C59.3897 37.3467 60.691 37.144 62.2697 37.144C63.2937 37.144 64.2537 37.24 65.1497 37.432C66.067 37.6027 66.7817 37.848 67.2937 38.168V40.568C66.931 40.3973 66.4723 40.2267 65.9177 40.056C65.3843 39.8853 64.7977 39.7467 64.1577 39.64C63.5177 39.5333 62.8563 39.48 62.1737 39.48C60.7443 39.48 59.731 39.704 59.1337 40.152C58.5577 40.5787 58.2697 41.0693 58.2697 41.624C58.2697 42.0933 58.3977 42.488 58.6537 42.808C58.931 43.128 59.3897 43.4373 60.0297 43.736C60.691 44.0347 61.5763 44.376 62.6857 44.76C63.7097 45.1013 64.6483 45.496 65.5017 45.944C66.355 46.392 67.027 46.9573 67.5177 47.64C68.0297 48.3013 68.2857 49.1547 68.2857 50.2C68.2857 51.096 68.0617 51.9387 67.6137 52.728C67.187 53.496 66.4723 54.1253 65.4697 54.616C64.467 55.0853 63.123 55.32 61.4377 55.32ZM54.6572 34.68V33.432L56.9932 32.408H68.2572V34.68H54.6572ZM71.9747 55V48.92C71.9747 47.576 72.2733 46.6053 72.8707 46.008C73.468 45.3893 74.2253 44.9627 75.1427 44.728L75.1747 44.632L71.6547 43.288V42.232C71.6547 41.3573 71.9427 40.536 72.5187 39.768C73.0947 38.9787 73.916 38.3493 74.9827 37.88C76.0707 37.3893 77.3613 37.144 78.8547 37.144C80.156 37.144 81.3613 37.3573 82.4707 37.784C83.58 38.1893 84.4653 38.84 85.1267 39.736C85.8093 40.6107 86.1507 41.7627 86.1507 43.192V55H83.3027V43.48C83.3027 42.0507 82.8653 41.0373 81.9907 40.44C81.1373 39.8213 80.0813 39.512 78.8227 39.512C77.5213 39.512 76.4867 39.7893 75.7187 40.344C74.9507 40.8773 74.5667 41.56 74.5667 42.392L78.0227 44.12L77.7667 45.656C76.9773 45.656 76.284 45.9227 75.6867 46.456C75.1107 46.968 74.8227 47.7893 74.8227 48.92V55H71.9747ZM97.3702 55.32C96.1115 55.32 95.0235 55.1067 94.1062 54.68C93.2102 54.232 92.5168 53.56 92.0262 52.664C91.5568 51.768 91.3222 50.6053 91.3222 49.176V37.464H94.1702V49.016C94.1702 50.296 94.4902 51.2667 95.1302 51.928C95.7915 52.5893 96.7408 52.92 97.9782 52.92C99.4715 52.92 100.623 52.44 101.434 51.48C102.266 50.52 102.682 49.2293 102.682 47.608V37.464H105.53V55H103.162L103.034 52.408H102.874C102.49 53.2613 101.818 53.9653 100.858 54.52C99.9195 55.0533 98.7568 55.32 97.3702 55.32ZM103.235 35.448C102.168 35.448 101.326 35.2027 100.707 34.712C100.088 34.2 99.7792 33.4853 99.7792 32.568C99.7792 31.6293 100.088 30.9147 100.707 30.424C101.326 29.9333 102.168 29.688 103.235 29.688C104.302 29.688 105.155 29.9333 105.795 30.424C106.435 30.9147 106.755 31.6293 106.755 32.568C106.755 33.4853 106.435 34.2 105.795 34.712C105.155 35.2027 104.302 35.448 103.235 35.448ZM103.235 33.944C103.747 33.944 104.142 33.816 104.419 33.56C104.675 33.304 104.803 32.9733 104.803 32.568C104.803 32.1413 104.675 31.8107 104.419 31.576C104.142 31.32 103.747 31.192 103.235 31.192C102.744 31.192 102.371 31.32 102.115 31.576C101.838 31.8107 101.699 32.1413 101.699 32.568C101.699 32.9733 101.838 33.304 102.115 33.56C102.371 33.816 102.744 33.944 103.235 33.944ZM99.1617 27.928V26.808C99.439 26.744 99.7377 26.648 100.058 26.52C100.378 26.392 100.655 26.232 100.89 26.04C101.124 25.8267 101.242 25.56 101.242 25.24C101.242 25.0053 101.178 24.824 101.05 24.696C100.922 24.568 100.74 24.504 100.506 24.504C100.335 24.504 100.164 24.536 99.9937 24.6C99.8017 24.6427 99.6203 24.7173 99.4497 24.824L98.8737 23.352C99.2577 23.096 99.695 22.9253 100.186 22.84C100.655 22.7547 101.028 22.712 101.306 22.712C101.86 22.712 102.362 22.8613 102.81 23.16C103.258 23.4373 103.482 23.9173 103.482 24.6C103.482 24.8773 103.428 25.1973 103.322 25.56C103.194 25.9013 102.938 26.1787 102.554 26.392L102.362 25.784H107.226V27.928H99.1617ZM115.907 55V42.552C115.907 41.5067 115.662 40.7387 115.171 40.248C114.702 39.7573 113.902 39.512 112.771 39.512C112.003 39.512 111.278 39.6187 110.595 39.832C109.934 40.024 109.294 40.3013 108.675 40.664V38.104C109.102 37.8907 109.71 37.6773 110.499 37.464C111.288 37.2507 112.227 37.144 113.315 37.144C114.424 37.144 115.384 37.304 116.195 37.624C117.006 37.944 117.635 38.4773 118.083 39.224C118.531 39.9493 118.755 40.92 118.755 42.136V55H115.907ZM130.987 55.32C128.47 55.32 126.667 54.744 125.579 53.592C124.491 52.44 123.947 50.7973 123.947 48.664V37.464H126.795V48.696C126.795 50.1253 127.136 51.192 127.819 51.896C128.502 52.6 129.558 52.952 130.987 52.952C132.438 52.952 133.504 52.6 134.187 51.896C134.891 51.192 135.243 50.1253 135.243 48.696V31.16H138.091V48.664C138.091 50.7973 137.536 52.44 136.427 53.592C135.339 54.744 133.526 55.32 130.987 55.32ZM153.594 55V43.32C153.594 41.9333 153.274 40.952 152.634 40.376C152.015 39.7787 150.97 39.48 149.498 39.48C148.431 39.48 147.407 39.6293 146.426 39.928C145.466 40.2053 144.549 40.6 143.674 41.112V38.456C144.293 38.136 145.125 37.8373 146.17 37.56C147.237 37.2827 148.431 37.144 149.754 37.144C150.885 37.144 151.866 37.272 152.698 37.528C153.53 37.7627 154.213 38.1253 154.746 38.616C155.301 39.1067 155.717 39.736 155.994 40.504C156.271 41.2507 156.41 42.136 156.41 43.16V55H153.594ZM148.09 55.32C146.213 55.32 144.773 54.8933 143.77 54.04C142.789 53.1653 142.298 51.9173 142.298 50.296C142.298 48.5253 142.938 47.16 144.218 46.2C145.519 45.24 147.621 44.6747 150.522 44.504L154.17 44.28V46.648L150.906 46.872C148.73 47.0213 147.226 47.3627 146.394 47.896C145.583 48.4293 145.178 49.208 145.178 50.232C145.178 51.192 145.477 51.896 146.074 52.344C146.693 52.792 147.546 53.016 148.634 53.016C148.997 53.016 149.327 52.9947 149.626 52.952C149.925 52.888 150.213 52.8133 150.49 52.728L150.938 54.872C150.533 55.0213 150.085 55.128 149.594 55.192C149.125 55.2773 148.623 55.32 148.09 55.32ZM166.563 55V42.552C166.563 41.5067 166.318 40.7387 165.827 40.248C165.358 39.7573 164.558 39.512 163.427 39.512C162.659 39.512 161.934 39.6187 161.251 39.832C160.59 40.024 159.95 40.3013 159.331 40.664V38.104C159.758 37.8907 160.366 37.6773 161.155 37.464C161.945 37.2507 162.883 37.144 163.971 37.144C165.081 37.144 166.041 37.304 166.851 37.624C167.662 37.944 168.291 38.4773 168.739 39.224C169.187 39.9493 169.411 40.92 169.411 42.136V55H166.563Z" fill="#3C6628"/>
</svg>
