<svg width="53" height="53" viewBox="0 0 53 53" fill="none" xmlns="http://www.w3.org/2000/svg">
<g clip-path="url(#clip0_17_9)" filter="url(#filter0_d_17_9)">
<path d="M41.6875 23.6126C41.4833 23.3789 41.3102 23.1239 41.1675 22.8547C41.0973 30.0911 35.1895 35.9571 27.9367 35.9571C20.6404 35.9571 14.7044 30.021 14.7044 22.7247C14.7044 15.4284 20.6404 9.49231 27.9367 9.49231C34.2134 9.49231 39.4833 13.8855 40.8336 19.7581L42.0319 10.8501L42.0589 10.6498C38.6468 6.66488 33.582 4.13489 27.9367 4.13489C23.5325 4.13489 19.4817 5.67543 16.2932 8.2447V8.43704V8.60735V12.3804V12.5302C16.2932 15.0505 14.9869 17.3514 12.92 18.6662V33.4146V33.6687C16.3043 38.2997 21.7746 41.3142 27.9367 41.3142C34.4119 41.3142 40.1236 37.9856 43.4531 32.9503V32.678V24.7782C42.7776 24.5585 42.1655 24.1592 41.6875 23.6126Z" fill="black"/>
<path d="M27.9368 11.7411C21.8804 11.7411 16.9531 16.6683 16.9531 22.7248C16.9531 28.7813 21.8803 33.7084 27.9368 33.7084C33.9932 33.7084 38.9204 28.7813 38.9204 22.7248C38.9204 16.6683 33.9931 11.7411 27.9368 11.7411Z" fill="black"/>
<path d="M48.9499 2.1702C48.9499 1.21314 48.1741 0.437317 47.217 0.437317C46.3493 0.437317 45.6153 1.07911 45.4997 1.93918L42.9676 20.7611C42.9009 21.2565 43.0516 21.7565 43.3805 22.1328C43.7096 22.5091 44.185 22.7248 44.6849 22.7248H45.7017V42.9136C45.7017 43.8244 46.44 44.5627 47.3508 44.5627C48.2615 44.5627 48.9998 43.8244 48.9998 42.9136L48.9499 2.1702Z" fill="black"/>
<path d="M14.0444 2.53618C14.0444 1.91507 13.5411 1.4118 12.92 1.4118C12.2989 1.4118 11.7957 1.91507 11.7957 2.53618V8.75757H10.1466V2.53618C10.1466 1.91507 9.64331 1.4118 9.0222 1.4118C8.4011 1.4118 7.89783 1.91507 7.89783 2.53618V8.75757H6.24875V2.53618C6.24875 1.91507 5.74548 1.4118 5.12437 1.4118C4.50327 1.4118 4 1.91507 4 2.53618V12.6804C4 14.8721 5.41176 16.7391 7.37312 17.4232V42.9137C7.37312 43.8244 8.11146 44.5627 9.0222 44.5627C9.93295 44.5627 10.6713 43.8244 10.6713 42.9137V17.4232C12.6326 16.7391 14.0444 14.8721 14.0444 12.6804V2.53618Z" fill="black"/>
</g>
<defs>
<filter id="filter0_d_17_9" x="0" y="0" width="53" height="53" filterUnits="userSpaceOnUse" color-interpolation-filters="sRGB">
<feFlood flood-opacity="0" result="BackgroundImageFix"/>
<feColorMatrix in="SourceAlpha" type="matrix" values="0 0 0 0 0 0 0 0 0 0 0 0 0 0 0 0 0 0 127 0" result="hardAlpha"/>
<feOffset dy="4"/>
<feGaussianBlur stdDeviation="2"/>
<feComposite in2="hardAlpha" operator="out"/>
<feColorMatrix type="matrix" values="0 0 0 0 0 0 0 0 0 0 0 0 0 0 0 0 0 0 0.25 0"/>
<feBlend mode="normal" in2="BackgroundImageFix" result="effect1_dropShadow_17_9"/>
<feBlend mode="normal" in="SourceGraphic" in2="effect1_dropShadow_17_9" result="shape"/>
</filter>
<clipPath id="clip0_17_9">
<rect width="45" height="45" fill="white" transform="translate(4)"/>
</clipPath>
</defs>
</svg>
